<?xml version="1.0" encoding="utf-8"?>
<!-- Generator: Adobe Illustrator 27.5.0, SVG Export Plug-In . SVG Version: 6.00 Build 0)  -->
<svg version="1.1" id="Layer_1" xmlns="http://www.w3.org/2000/svg" xmlns:xlink="http://www.w3.org/1999/xlink" x="0px" y="0px"
	 viewBox="0 0 836 273.29" style="enable-background:new 0 0 836 273.29;" xml:space="preserve">
<style type="text/css">
	.st0{fill:#68C3CD;}
	.st1{fill:#48A8D4;}
</style>
<g>
	<g>
		<path class="st0" d="M22.98,267.55H10.84l-1.95,5.74H0.6l11.77-32.52h9.17l11.77,32.52h-8.38L22.98,267.55z M20.94,261.43
			l-4.03-11.91l-3.98,11.91H20.94z"/>
		<path class="st0" d="M67.87,273.29l-6.76-12.28h-1.9v12.28h-7.92v-32.52h13.3c2.56,0,4.75,0.45,6.55,1.34
			c1.81,0.9,3.16,2.12,4.05,3.68c0.89,1.56,1.34,3.3,1.34,5.21c0,2.16-0.61,4.09-1.83,5.79s-3.02,2.9-5.4,3.61l7.51,12.88H67.87z
			 M59.21,255.41h4.91c1.45,0,2.54-0.36,3.27-1.07c0.72-0.71,1.09-1.71,1.09-3.01c0-1.24-0.36-2.21-1.09-2.92
			c-0.73-0.71-1.81-1.07-3.27-1.07h-4.91V255.41z"/>
		<path class="st0" d="M91.73,247.12v6.58h10.61v6.11H91.73v7.13h12v6.35H83.81v-32.52h19.92v6.35H91.73z"/>
		<path class="st0" d="M134.58,240.77v6.35h-8.62v26.17h-7.92v-26.17h-8.62v-6.35H134.58z"/>
		<path class="st0" d="M148.8,247.12v6.58h10.61v6.11H148.8v7.13h12v6.35h-19.92v-32.52h19.92v6.35H148.8z"/>
		<path class="st0" d="M188.18,273.29l-6.62-9.96l-5.84,9.96h-8.99l10.42-16.54l-10.65-15.98h9.22l6.53,9.82l5.74-9.82h8.99
			l-10.33,16.4l10.75,16.12H188.18z"/>
		<path class="st0" d="M240.01,259.42c1.14,1.47,1.71,3.14,1.71,5.03c0,2.72-0.95,4.87-2.85,6.46c-1.9,1.59-4.55,2.39-7.94,2.39
			h-15.15v-32.52h14.64c3.3,0,5.89,0.76,7.76,2.27c1.87,1.51,2.8,3.57,2.8,6.16c0,1.92-0.5,3.51-1.51,4.77
			c-1,1.27-2.34,2.15-4.01,2.64C237.36,257.01,238.87,257.95,240.01,259.42z M223.71,253.93h5.19c1.3,0,2.29-0.28,2.99-0.86
			c0.7-0.57,1.04-1.41,1.04-2.53c0-1.11-0.35-1.96-1.04-2.55c-0.7-0.59-1.69-0.88-2.99-0.88h-5.19V253.93z M232.62,265.99
			c0.73-0.6,1.09-1.47,1.09-2.62c0-1.14-0.38-2.04-1.13-2.69c-0.76-0.65-1.8-0.97-3.13-0.97h-5.74v7.18h5.84
			C230.87,266.9,231.9,266.6,232.62,265.99z"/>
		<path class="st0" d="M265.17,273.29l-6.76-12.28h-1.9v12.28h-7.92v-32.52h13.3c2.56,0,4.75,0.45,6.55,1.34
			c1.81,0.9,3.16,2.12,4.05,3.68c0.89,1.56,1.34,3.3,1.34,5.21c0,2.16-0.61,4.09-1.83,5.79c-1.22,1.7-3.02,2.9-5.4,3.61l7.51,12.88
			H265.17z M256.5,255.41h4.91c1.45,0,2.54-0.36,3.27-1.07c0.72-0.71,1.09-1.71,1.09-3.01c0-1.24-0.36-2.21-1.09-2.92
			c-0.73-0.71-1.81-1.07-3.27-1.07h-4.91V255.41z"/>
		<path class="st0" d="M301.35,267.55h-12.14l-1.95,5.74h-8.29l11.77-32.52h9.17l11.77,32.52h-8.38L301.35,267.55z M299.31,261.43
			l-4.03-11.91l-3.98,11.91H299.31z"/>
		<path class="st0" d="M346.61,273.29h-7.92l-13.25-20.06v20.06h-7.92v-32.52h7.92l13.25,20.15v-20.15h7.92V273.29z"/>
		<path class="st0" d="M375.79,242.81c2.56,1.36,4.55,3.27,5.95,5.72c1.41,2.45,2.11,5.29,2.11,8.5c0,3.18-0.7,6.01-2.11,8.48
			c-1.4,2.47-3.4,4.38-5.97,5.74c-2.58,1.36-5.57,2.04-8.96,2.04h-12.18v-32.52h12.18C370.24,240.77,373.23,241.45,375.79,242.81z
			 M373.29,263.98c1.67-1.64,2.5-3.95,2.5-6.95c0-3-0.84-5.33-2.5-7c-1.67-1.67-4-2.5-7-2.5h-3.75v18.9h3.75
			C369.29,266.43,371.62,265.62,373.29,263.98z"/>
	</g>
</g>
<g>
	<path class="st1" d="M227.97,178.18H193.7V57.46h34.27V178.18z M231.21,22.51c0,6.31-2.05,11.25-6.14,14.83
		c-4.09,3.58-8.87,5.46-14.32,5.46c-5.46,0-10.23-1.7-14.32-5.46c-4.09-3.75-6.14-8.52-6.14-14.83c0-6.31,2.04-11.25,6.14-14.83
		c4.09-3.58,8.87-5.46,14.32-5.46c5.46,0,10.23,1.87,14.32,5.46C229.16,11.25,231.21,16.2,231.21,22.51"/>
</g>
<g>
	<path class="st1" d="M87.3,108.78c-3.07,11.6-6.31,23.19-9.72,34.61c-3.41,11.42-7.16,23.02-10.91,34.61h-26.6
		c-2.73-6.48-5.8-14.15-9.04-23.02S24.38,136.41,20.97,126c-3.41-10.57-6.99-21.65-10.57-33.25C6.82,81.16,3.41,69.39,0,57.46h35.98
		c1.19,5.46,2.56,11.59,4.09,18.07c1.54,6.31,3.07,13.13,4.6,19.95c1.71,6.82,3.24,13.81,5.12,20.8c1.7,6.99,3.58,13.64,5.46,20.12
		c2.04-6.65,3.92-13.64,5.8-20.63c1.87-6.99,3.75-13.98,5.45-20.8c1.7-6.82,3.41-13.3,5.12-19.78c1.53-6.31,3.07-12.28,4.26-17.73
		h24.72c1.19,5.46,2.56,11.42,4.09,17.73c1.54,6.31,3.07,12.96,4.78,19.78c1.7,6.82,3.41,13.81,5.28,20.8
		c1.88,6.99,3.92,13.81,5.97,20.63c1.88-6.48,3.75-13.13,5.46-20.12c1.71-6.99,3.58-13.98,5.29-20.8c1.54-6.82,3.07-13.64,4.6-20.12
		c1.54-6.48,2.9-12.45,4.09-18.07h35.46c-3.41,11.93-6.82,23.7-10.4,35.46c-3.58,11.76-7.16,22.85-10.57,33.25
		c-3.41,10.57-6.82,20.12-10.06,28.99s-6.31,16.54-9.04,23.02h-26.77c-3.75-11.6-7.5-23.19-11.25-34.61
		C93.78,131.97,90.37,120.38,87.3,108.78"/>
</g>
<g>
	<path class="st1" d="M259,27.28l34.27-5.46v35.64h40.92v28.48H293.1v42.46c0,7.16,1.19,12.96,3.75,17.22
		c2.56,4.26,7.67,6.48,15.17,6.48c3.75,0,7.5-0.34,11.42-1.02c3.92-0.68,7.5-1.7,10.74-2.9l4.77,26.6
		c-4.09,1.71-8.69,3.07-13.81,4.43c-5.12,1.36-11.26,1.87-18.59,1.87c-9.38,0-17.05-1.19-23.19-3.75
		c-6.14-2.56-11.08-5.97-14.66-10.57c-3.58-4.6-6.31-10.06-7.67-16.37c-1.54-6.48-2.22-13.47-2.22-21.31L259,27.28z"/>
</g>
<g>
	<path class="st1" d="M403.59,154.31c3.41,0,6.65,0,9.72-0.17c3.07-0.17,5.46-0.34,7.33-0.68v-26.09c-1.36-0.34-3.41-0.68-6.14-0.85
		c-2.73-0.17-5.28-0.51-7.5-0.51c-3.24,0-6.31,0.17-9.04,0.51c-2.9,0.34-5.29,1.19-7.5,2.22c-2.22,1.02-3.75,2.56-5.11,4.43
		c-1.19,1.88-1.88,4.09-1.88,6.82c0,5.29,1.88,9.04,5.46,11.08C392.34,153.29,397.28,154.31,403.59,154.31 M400.86,54.22
		c10.06,0,18.58,1.19,25.23,3.41c6.65,2.22,12.11,5.63,16.2,9.89c4.09,4.27,6.99,9.55,8.52,15.69c1.53,6.14,2.56,12.96,2.56,20.46
		v71.1c-4.95,1.02-11.77,2.39-20.46,3.75c-8.7,1.36-19.27,2.22-31.72,2.22c-7.84,0-14.83-0.68-21.14-2.05
		c-6.31-1.36-11.76-3.58-16.37-6.82c-4.6-3.07-8.18-7.16-10.57-12.28c-2.39-5.11-3.58-11.25-3.58-18.58c0-6.99,1.36-12.96,4.26-17.9
		c2.9-4.95,6.65-8.87,11.42-11.76c4.77-2.9,10.23-4.95,16.37-6.31c6.14-1.36,12.45-1.88,19.1-1.88c4.43,0,8.36,0.17,11.77,0.51
		c3.41,0.34,6.31,0.85,8.35,1.53v-3.24c0-5.8-1.7-10.57-5.28-13.98c-3.58-3.58-9.72-5.29-18.42-5.29c-5.8,0-11.6,0.34-17.22,1.19
		c-5.63,0.85-10.57,2.04-14.66,3.58l-4.43-27.62c2.05-0.68,4.43-1.19,7.5-1.88c3.07-0.68,6.31-1.36,9.72-1.87
		c3.58-0.51,7.16-1.02,11.08-1.37C392.85,54.39,396.77,54.22,400.86,54.22"/>
</g>
<g>
	<path class="st1" d="M518.51,178.18h-34.27V57.46h34.27V178.18z M521.75,22.51c0,6.31-2.05,11.25-6.14,14.83
		c-4.09,3.58-8.87,5.46-14.32,5.46c-5.46,0-10.23-1.7-14.32-5.46c-4.09-3.75-6.14-8.52-6.14-14.83c0-6.31,2.04-11.25,6.14-14.83
		c4.09-3.58,8.87-5.46,14.32-5.46c5.46,0,10.23,1.87,14.32,5.46C519.88,11.25,521.75,16.2,521.75,22.51"/>
</g>
<g>
	<path class="st1" d="M598.99,180.4c-9.89-0.17-18.07-1.19-24.21-3.24c-6.14-2.05-11.08-4.77-14.66-8.36
		c-3.58-3.58-5.97-8.01-7.33-13.13c-1.36-5.11-1.87-10.91-1.87-17.39v-133L585.01,0v131.63c0,3.07,0.17,5.8,0.68,8.18
		c0.51,2.39,1.37,4.61,2.56,6.14c1.36,1.7,3.24,3.07,5.63,4.09c2.39,1.02,5.8,1.71,9.89,2.05L598.99,180.4z"/>
</g>
<g>
	<path class="st1" d="M697.89,105.54c-0.17-2.9-0.68-5.8-1.54-8.53c-0.85-2.73-2.22-5.11-3.92-7.33c-1.71-2.22-3.92-3.92-6.65-5.29
		c-2.73-1.36-5.97-2.04-10.06-2.04c-3.75,0-7.16,0.68-9.89,1.87c-2.73,1.19-5.11,3.07-6.82,5.11c-1.88,2.22-3.24,4.6-4.26,7.5
		c-1.02,2.9-1.71,5.63-2.22,8.52h45.35V105.54z M617.58,118.67c0-10.74,1.7-20.12,4.95-28.13c3.24-8.01,7.67-14.66,12.96-20.12
		c5.28-5.29,11.59-9.38,18.41-12.11c6.99-2.73,14.15-4.09,21.48-4.09c17.05,0,30.69,5.28,40.58,15.69
		c9.89,10.57,15.01,25.92,15.01,46.21c0,2.05,0,4.09-0.17,6.48c-0.17,2.39-0.34,4.43-0.51,6.31H652.7
		c0.85,6.99,4.09,12.62,9.89,16.71c5.8,4.09,13.64,6.14,23.36,6.14c6.31,0,12.45-0.51,18.41-1.71c5.97-1.19,10.92-2.56,14.84-4.26
		l4.6,27.79c-1.87,0.85-4.26,1.87-7.33,2.73c-3.07,0.85-6.48,1.7-10.23,2.39c-3.75,0.68-7.84,1.19-12.11,1.7
		c-4.26,0.51-8.52,0.68-12.79,0.68c-10.91,0-20.29-1.54-28.31-4.78c-8.01-3.24-14.66-7.67-19.95-13.13
		c-5.29-5.63-9.21-12.28-11.76-19.95C618.77,135.89,617.58,127.54,617.58,118.67"/>
</g>
<g>
	<path class="st1" d="M830.2,87.64c-3.07-0.85-6.65-1.54-10.74-2.39c-4.09-0.85-8.52-1.19-13.3-1.19c-2.21,0-4.77,0.17-7.67,0.51
		c-2.9,0.34-5.29,0.85-6.82,1.19v92.25h-34.27V63.77c6.14-2.22,13.3-4.09,21.66-6.14c8.36-1.88,17.56-2.9,27.96-2.9
		c1.88,0,4.09,0.17,6.65,0.34c2.56,0.17,5.11,0.51,7.84,0.85c2.56,0.34,5.12,0.85,7.84,1.37c2.56,0.51,4.78,1.19,6.65,1.87
		L830.2,87.64z"/>
</g>
</svg>
